<svg xmlns="http://www.w3.org/2000/svg" width="238" height="275.838" viewBox="-472.308 -103.127 238 275.838"><path fill="#E5E5E5" d="M-260.833-21.45l4.308-4.307c6.202-6.21 7.306-15.115 2.496-19.926-4.8-4.81-13.705-3.698-19.916 2.513l-4.3 4.308a117.282 117.282 0 0 0-59.75-25.527v-7.718h6.104c8.707 0 15.815-7 15.815-15.51s-7.11-15.51-15.815-15.51h-42.634c-8.707 0-15.815 7-15.815 15.51s7.107 15.51 15.814 15.51h6.104v7.72c-58.548 7.501-103.884 57.441-103.884 118.08 0 65.773 53.342 119.017 119 119.017 65.754 0 118.998-53.35 118.998-119.016.195-28.417-9.813-54.643-26.525-75.143zm-91.974 161.92c-48.342 0-87.575-39.223-87.575-87.565s39.232-87.565 87.575-87.565 87.566 39.223 87.566 87.565c0 48.432-39.224 87.566-87.567 87.566z"/><g fill="#D22856"><path d="M-352.807-48.68c-56.15 0-101.586 45.54-101.586 101.584 0 56.044 45.435 101.586 101.586 101.586 56.143 0 101.586-45.435 101.586-101.586 0-56.043-45.444-101.585-101.587-101.585zm0 189.15c-48.342 0-87.575-39.223-87.575-87.565s39.232-87.565 87.575-87.565 87.566 39.223 87.566 87.565c0 48.432-39.224 87.566-87.567 87.566z"/><path d="M-387.838 72.22l8.805-8.293c5.906-5.42 10.008-9.514 12.314-12.422 2.3-2.908 4.103-5.816 5.207-8.51 1.095-2.8 1.696-5.708 1.696-8.903 0-3.608-.897-6.91-2.702-9.712-1.803-2.8-4.397-5.008-7.7-6.605-3.303-1.598-7.108-2.298-11.417-2.298-3.303 0-6.202.305-8.805.987-2.603.61-5.107 1.615-7.306 2.71-2.2 1.203-5 3.214-8.41 6.104l7.907 9.317c2.7-2.298 5.304-4.02 7.808-5.206 2.504-1.204 5.107-1.796 7.71-1.796 2.495 0 4.604.682 6.103 1.992 1.5 1.31 2.3 3.393 2.3 6.104 0 1.813-.297 3.608-.997 5.403-.7 1.705-1.804 3.608-3.402 5.6-1.605 2.012-4.91 5.602-10.007 10.916l-17.215 17.41v10.107h48.038V72.92h-29.925v-.7zm78.061-55.756h-13.41l-30.122 44.34v10.124h29.324v14.2h14.208v-14.2h8.312v-11.31h-8.312V16.464zm-13.912 23.03c-.197 3.7-.197 6.518-.197 8.402V59.51h-16.515l12.61-19.028a52.907 52.907 0 0 0 4.21-7.504h.395c-.197.72-.296 2.8-.502 6.517z"/></g></svg>