<svg id="Layer_1" xmlns="http://www.w3.org/2000/svg" width="88.366" height="50"><style>.st1{fill-rule:evenodd;clip-rule:evenodd}</style><path class="st1" d="M6.806 0v14.694c2.191-2.667 4.817-4.011 7.863-4.011 1.569 0 2.976.304 4.233.914 1.264.603 2.21 1.376 2.846 2.316a8.539 8.539 0 0 1 1.309 3.131c.234 1.139.351 2.912.351 5.315v15.714h-6.806V23.921c0-2.807-.124-4.587-.383-5.342a3.461 3.461 0 0 0-1.368-1.8c-.655-.45-1.472-.675-2.457-.675-1.128 0-2.14.291-3.021.861-.895.576-1.543 1.436-1.951 2.587-.415 1.152-.623 2.853-.616 5.103l-.007 13.418H0V0h6.806zM33.61 0v14.694c2.19-2.667 4.816-4.011 7.862-4.011 1.563 0 2.976.304 4.24.914 1.258.603 2.204 1.376 2.839 2.316a8.557 8.557 0 0 1 1.31 3.131c.234 1.139.351 2.912.351 5.315v15.714h-6.8V23.921c0-2.807-.13-4.587-.389-5.342a3.461 3.461 0 0 0-1.368-1.8c-.648-.45-1.473-.675-2.457-.675-1.128 0-2.14.291-3.021.861-.887.576-1.535 1.436-1.951 2.587-.408 1.152-.615 2.853-.615 5.103v13.418h-6.8V0h6.799zm0 0M.02 49.874v-7.678h.907v3.157h3.552l-.006-3.157h.907v7.678h-.907v-3.62H.927v3.62H.02zm10.099-1.793l.868.119c-.137.576-.389 1.013-.759 1.324-.369.317-.843.476-1.418.476-.727 0-1.298-.251-1.725-.754-.422-.496-.636-1.205-.636-2.105 0-.934.214-1.662.642-2.178.429-.516.992-.774 1.673-.774.661 0 1.199.252 1.621.755.421.51.635 1.218.635 2.138-.007.054 0 .139-.007.252H7.318c.032.608.188 1.079.46 1.403.279.324.622.489 1.037.489.305 0 .569-.093.79-.278.214-.178.39-.47.514-.867zm-2.756-1.522h2.768c-.039-.464-.142-.821-.317-1.053-.266-.364-.615-.543-1.043-.543-.383 0-.707.139-.967.431-.266.291-.408.681-.441 1.165zm7.857 2.627c-.305.298-.603.51-.894.63-.286.124-.59.184-.921.184-.551 0-.966-.151-1.259-.45-.291-.298-.434-.682-.44-1.145 0-.271.059-.523.169-.741a1.5 1.5 0 0 1 .434-.543c.176-.14.383-.245.604-.312.162-.053.408-.093.745-.139.682-.093 1.174-.199 1.498-.331.006-.126.006-.212.006-.245 0-.384-.084-.648-.239-.808-.214-.212-.538-.317-.953-.317-.396 0-.688.072-.875.231-.188.152-.33.431-.415.821l-.823-.126c.071-.391.194-.709.37-.953.168-.245.415-.431.739-.563a3.05 3.05 0 0 1 1.12-.192c.422 0 .766.054 1.031.166s.46.251.583.417c.124.172.215.384.26.648.026.159.046.45.046.867v1.257c0 .874.013 1.431.052 1.662.031.231.11.45.214.668h-.875a2.236 2.236 0 0 1-.177-.686zm-.065-2.105c-.305.139-.765.259-1.367.357-.351.053-.597.119-.739.192a.718.718 0 0 0-.324.304.858.858 0 0 0-.123.444c0 .251.09.463.259.629.169.172.415.251.739.251.33 0 .616-.073.868-.231.247-.166.435-.385.551-.662.091-.212.137-.522.137-.939v-.345h-.001zm5.309 2.793v-.701c-.311.549-.772.827-1.381.827-.395 0-.758-.118-1.089-.371a2.306 2.306 0 0 1-.765-1.019c-.188-.438-.272-.94-.272-1.516 0-.55.078-1.059.24-1.51.168-.449.414-.794.746-1.039a1.82 1.82 0 0 1 1.107-.357c.292 0 .558.066.791.212.233.139.421.324.57.557v-2.761h.83v7.678h-.777zm-2.645-2.779c-.007.715.13 1.251.396 1.602.272.351.583.529.946.529.37 0 .681-.172.934-.503.259-.344.389-.854.389-1.549 0-.761-.136-1.317-.396-1.675-.259-.351-.583-.529-.966-.529-.369 0-.681.172-.934.509-.245.344-.375.881-.369 1.616zm4.836 2.779v-7.678h.9v3.157h3.553v-3.157h.907v7.678h-.907v-3.62h-3.553v3.62h-.9zm9.957 0v-.82c-.383.635-.908.946-1.575.946-.292 0-.564-.06-.816-.192a1.334 1.334 0 0 1-.564-.47 1.936 1.936 0 0 1-.259-.701 5.483 5.483 0 0 1-.052-.88v-3.442h.842V47.4c0 .489.02.82.052.992a.985.985 0 0 0 .331.583.946.946 0 0 0 .635.211c.254 0 .492-.072.713-.218.214-.139.376-.345.467-.589.092-.252.137-.609.137-1.086v-2.979h.836v5.56h-.747zm2.016 0v-5.56h.752v.787c.363-.608.895-.913 1.582-.913.292 0 .569.06.816.18.253.118.44.277.563.47.124.198.214.43.26.701.033.172.053.477.053.913v3.422h-.843v-3.382c0-.384-.033-.675-.097-.86a.899.899 0 0 0-.345-.457 1.056 1.056 0 0 0-.59-.172c-.356 0-.668.126-.928.384-.259.252-.388.734-.382 1.449l-.006 3.038h-.835zm7.092-.847l.123.834c-.233.06-.447.086-.636.086-.304 0-.537-.053-.706-.165a.858.858 0 0 1-.355-.424c-.065-.173-.098-.55-.098-1.112v-3.204h-.623v-.728h.623v-1.377l.835-.569-.006 1.946h.843v.728h-.843v3.257c0 .265.014.438.046.517a.388.388 0 0 0 .143.186c.071.04.162.065.292.065.09-.001.212-.013.362-.04zm4.168-.946l.862.119c-.136.576-.389 1.013-.759 1.33-.369.311-.843.47-1.413.47-.726 0-1.303-.251-1.724-.754-.428-.496-.642-1.205-.642-2.105 0-.934.22-1.662.648-2.178.428-.516.984-.774 1.666-.774.66 0 1.205.252 1.627.755.414.51.628 1.218.628 2.138 0 .054-.006.139-.006.252H43.08c.032.608.188 1.079.461 1.403.278.324.622.489 1.036.489.305 0 .57-.093.791-.278.215-.178.39-.47.52-.867zm-2.755-1.522h2.762c-.039-.464-.143-.821-.318-1.053-.266-.364-.615-.543-1.037-.543-.389 0-.713.139-.972.431-.266.291-.409.681-.435 1.165zm4.615 3.315v-5.56h.759v.841c.188-.397.362-.655.531-.781a.855.855 0 0 1 .531-.186c.292 0 .578.1.869.305l-.291.873a1.082 1.082 0 0 0-.616-.204.742.742 0 0 0-.493.185 1.014 1.014 0 0 0-.311.517 3.889 3.889 0 0 0-.137 1.099v2.912h-.842v-.001zm0 0"/><path d="M71.979 10.849c-9.05 0-16.388 7.493-16.388 16.733 0 9.246 7.338 16.732 16.388 16.732 9.049 0 16.387-7.486 16.387-16.732 0-9.241-7.338-16.733-16.387-16.733zm-3.118 14.059c-.538-.358-1.037-.53-1.497-.53a1.77 1.77 0 0 0-1.128.371c-.312.251-.559.708-.733 1.356-.174.662-.26 2.032-.26 4.117v3.786H62.06V21.744h2.95v1.741c.512-.821.96-1.364 1.367-1.622a2.455 2.455 0 0 1 1.375-.397c.72 0 1.42.206 2.094.616l-.985 2.826zm13.102 9.101h-2.956v-1.834a4.756 4.756 0 0 1-1.725 1.55 4.767 4.767 0 0 1-2.263.563c-.805 0-1.529-.179-2.165-.543-.643-.364-1.108-.867-1.395-1.529-.284-.648-.427-1.556-.427-2.714v-7.757h3.176v5.633c0 1.727.059 2.786.176 3.17.116.391.33.701.635.927.311.225.706.338 1.18.338a2.459 2.459 0 0 0 1.459-.45c.434-.305.726-.682.881-1.132.163-.45.24-1.556.24-3.31v-5.176h3.184v12.264z" fill-rule="evenodd" clip-rule="evenodd" fill="#de0026"/></svg>