<svg xmlns="http://www.w3.org/2000/svg" width="146.3" height="40.4" viewBox="0 0 146.3 40.4"><path fill="#F00" d="M60.5 28L55.3 6.6C54.9 4.3 52.7 0 46.7 0c-.8 0-1.5.7-1.5 1.5S45.9 3 46.7 3c4.9 0 5.6 3.7 5.6 4.1l4.8 19.7H55c-.7-5.9-5.8-10.5-11.9-10.5s-11.2 4.6-11.9 10.5h-1.8c-.7-5.9-5.8-10.5-11.9-10.5s-11.3 4.6-12 10.5H3.4L8.2 7.1C8.3 6.7 9 3 13.8 3c.8 0 1.5-.7 1.5-1.5S14.7 0 13.8 0c-6 0-8.2 4.3-8.6 6.7L0 28.1c-.3 1.1.5 1.8 1.4 1.8h4c.7 5.9 5.8 10.5 11.9 10.5s11.2-4.6 11.9-10.5H31c.7 5.9 5.8 10.5 11.9 10.5S54.3 35.8 55 29.8h4c.9 0 1.7-.7 1.5-1.8zm-34.2 1.8c-.7 4.3-4.4 7.5-8.9 7.5S9.2 34 8.5 29.8c-.1-.5-.1-1-.1-1.5s.1-1 .1-1.5c.7-4.3 4.4-7.5 8.9-7.5s8.2 3.3 8.9 7.5c.1.5.1 1 .1 1.5s0 1.1-.1 1.5zm25.7 0c-.7 4.3-4.4 7.5-8.9 7.5s-8.2-3.3-8.9-7.5c-.1-.5-.1-1-.1-1.5s.1-1 .1-1.5c.7-4.3 4.4-7.5 8.9-7.5s8.2 3.3 8.9 7.5c.1.5.1 1 .1 1.5s0 1.1-.1 1.5z"/><path d="M80.3 17.4h-7.2c-.7 0-1.3.6-1.3 1.3v20.1c0 .7.6 1.3 1.3 1.3.7 0 1.3-.6 1.3-1.3V32h5.5c4.8 0 8.9-2.5 8.9-7.4v-.1c-.1-4.4-3.4-7.1-8.5-7.1zm5.9 7.3c0 3-2.4 5-6.2 5h-5.6v-9.9h5.7c3.7-.1 6.1 1.6 6.1 4.9zm8.7-7.5c-.7 0-1.3.6-1.3 1.3v20.3c0 .7.6 1.3 1.3 1.3.7 0 1.3-.6 1.3-1.3V18.5c-.1-.7-.6-1.3-1.3-1.3zm25.7 0c-.7 0-1.3.6-1.3 1.3v17L105.6 18c-.4-.5-.7-.7-1.3-.7h-.3c-.7 0-1.3.6-1.3 1.3v20.3c0 .7.5 1.3 1.2 1.3s1.3-.6 1.3-1.3V21.4l14 17.9c.4.5.8.8 1.3.8h.1c.7 0 1.2-.5 1.2-1.2V18.5c0-.7-.5-1.3-1.2-1.3zm25.3 20.6l-8.6-10.6 8-7.9c.3-.3.4-.5.4-.9 0-.6-.5-1.3-1.2-1.3-.4 0-.7.2-1 .5l-12.8 13.2V18.5c0-.7-.6-1.3-1.3-1.3-.7 0-1.3.6-1.3 1.3v20.3c0 .7.6 1.3 1.3 1.3.7 0 1.3-.6 1.3-1.3v-4.9l4.9-4.9 8.4 10.5c.2.3.5.6 1 .6.7 0 1.3-.6 1.3-1.3 0-.4-.1-.7-.4-1z" fill="#FFF"/><g fill="#0FF"><path d="M39.9 19.6v.3c1-.4 2.1-.6 3.2-.6h.7c-.4-.7-1.2-1.2-2.1-1.2-.9 0-1.6-.6-1.9-1.4-.7.2-1.4.5-2.1.8h.2c1.1.1 2 1 2 2.1z"/><path d="M60.5 28L55.3 6.6C54.9 4.3 52.7 0 46.7 0c-.8 0-1.5.7-1.5 1.5S45.9 3 46.7 3c4.9 0 5.6 3.7 5.6 4.1l4.8 19.7H55c-.4-3.6-2.5-6.6-5.3-8.5-.9.4-1.5 1.3-1.5 2.3v.3c2 1.4 3.4 3.5 3.8 6 .1.5.1 1 .1 1.5s-.1 1-.1 1.5c-.7 4.3-4.4 7.5-8.9 7.5s-8.2-3.3-8.9-7.5c-.1-.5-.1-1-.1-1.5s.1-1 .1-1.5c.1-.9.4-1.7.8-2.5-1-.1-1.9-.9-1.9-2 0-.2-.1-.4-.2-.5-.9 1.5-1.6 3.2-1.8 5h-1.8c-.7-5.9-5.8-10.5-11.9-10.5S6.2 20.9 5.5 26.8H3.4L8.2 7.1C8.3 6.7 9 3 13.8 3c.8 0 1.5-.7 1.5-1.5S14.7 0 13.8 0c-6 0-8.2 4.3-8.6 6.7L0 28.1c-.3 1.1.5 1.8 1.4 1.8h4c.1.6.2 1.2.4 1.8.1-.1.2-.2.2-.4 0-1.1.9-2 2-2 .2 0 .3 0 .5.1 0-.3-.1-.7-.1-1 0-.5.1-1 .1-1.5.7-4.3 4.4-7.5 8.9-7.5s8.2 3.3 8.9 7.5c.1.5.1 1 .1 1.5s-.1 1-.1 1.5c-.7 4.3-4.4 7.5-8.9 7.5-2 0-3.9-.7-5.4-1.8-.3.3-.8.5-1.3.5-.4 0-.7.3-.7.7 0 .3-.1.6-.2.8 2.1 1.7 4.7 2.7 7.6 2.7 6.1 0 11.2-4.6 11.9-10.5h1.8c.7 5.9 5.8 10.5 11.9 10.5s11.3-4.5 12-10.5h4c.9 0 1.7-.7 1.5-1.8z"/></g><path d="M94.9 6.3c0 2-1.6 3.6-3.6 3.6 2 0 3.6 1.6 3.6 3.6 0-2 1.6-3.6 3.6-3.6-2 0-3.6-1.6-3.6-3.6zm-48.7 5.3c0 2.5-2 4.5-4.5 4.5 2.5 0 4.5 2 4.5 4.5 0-2.5 2-4.5 4.5-4.5-2.5 0-4.5-2-4.5-4.5zm-11 5.3c0 1.5-1.2 2.7-2.7 2.7 1.5 0 2.7 1.2 2.7 2.7 0-1.5 1.2-2.7 2.7-2.7-1.5 0-2.7-1.2-2.7-2.7zM8 31.3c0 1.5-1.2 2.8-2.7 2.8 1.5 0 2.7 1.2 2.7 2.7 0-1.5 1.2-2.7 2.7-2.7-1.5 0-2.7-1.3-2.7-2.8z" fill="#D22856"/></svg>