<?xml version="1.0" encoding="utf-8"?>
<svg version="1.1" xmlns="http://www.w3.org/2000/svg" xmlns:xlink="http://www.w3.org/1999/xlink"
width="152.048px" height="39.947px" viewBox="0 0 152.048 39.947">
<path fill="#EE3124" d="M20.303,21.742c0-3.749-1.25-6.022-2.69-7.007c-4.506-3.068-12.535-1.666-12.535-7.764 c0-2.917,1.399-5.834,5.34-5.834c5.303,0,7.518,4.697,8.049,7.424h0.149V0h-0.149c-0.645,0.758-1.288,0.985-1.781,0.985 C16.155,0.985,13.598,0,10.644,0C5.001,0,0,3.296,0,9.849c0,13.068,15.53,5.984,15.53,15.681c0,4.469-3.372,5.605-5.682,5.605 c-4.771,0-7.739-3.105-9.103-8.711l-0.152,0.037v9.816h0.152c1.1-0.953,1.819-1.143,2.083-1.143c1.325,0,3.459,1.143,6.791,1.143 C15.72,32.278,20.303,28.219,20.303,21.742L20.303,21.742z M34.089,27.386c0,0.985-0.984,1.932-1.968,1.932 c-1.288,0-1.933-0.567-1.933-1.894V10.651h-7.992v0.152c0.986,0.34,1.818,1.894,1.818,2.955v15.75c0,1.78,2.689,2.543,4.015,2.543 c3.145,0,5.493-2.127,6.06-2.733l0.191,2.733h0.15c2.196-0.611,5.72-0.763,7.538-0.763v-0.152 c-0.983-0.454-1.818-1.779-1.818-2.955v-17.53h-7.879v0.152c0.985,0.34,1.817,1.894,1.817,2.955V27.386L34.089,27.386z  M45.302,36.842c0,1.061-0.833,2.614-1.817,2.956v0.149h9.696v-0.149c-0.986-0.418-1.818-1.82-1.818-2.956v-6.388 c1.1,1.294,3.183,1.597,4.886,1.597c4.772,0,6.591-5.612,6.591-11.672c0-5.568-2.347-10.075-6.591-10.075 c-1.59,0-3.938,0.794-4.886,1.742l-0.189-1.742h-0.151c-2.197,0.605-4.205,0.757-7.537,0.757v0.152 c0.984,0.454,1.817,1.78,1.817,2.954V36.842L45.302,36.842z M51.362,14.091c0-0.985,1.023-2.197,2.348-2.197 c2.387,0,2.538,5.53,2.538,9.698c0,3.862-0.492,8.862-2.841,8.862c-1.137,0-2.045-0.833-2.045-1.856V14.091L51.362,14.091z  M81.854,25.417v-1.364c-0.945,1.818-2.234,3.599-5.188,3.599c-3.485,0-5.342-2.083-5.342-7.841h10.53 c0-2.423-0.228-9.507-7.917-9.507c-5.151,0-8.824,5.189-8.824,11.136c0,5.189,2.765,10.611,8.56,10.611 C78.444,32.051,80.225,30.114,81.854,25.417L81.854,25.417z M71.323,18.674c0-4.734,0.342-7.461,2.349-7.461 c1.591,0,2.198,2.727,2.198,7.461H71.323L71.323,18.674z M85.794,28.561c0,1.061-0.834,2.456-1.818,2.796v0.152h9.696v-0.152 c-0.985-0.415-1.818-1.66-1.818-2.796V17.576c0-2.045,1.099-3.711,2.425-3.711c0.682,0,1.666,0.492,2.158,1.136l1.667-4.318 c-0.455-0.378-1.288-0.757-2.12-0.757c-2.16,0-3.146,1.363-4.13,3.03v-3.03h-0.152c-0.606,0.303-2.271,0.757-7.726,0.757v0.152 c0.947,0.303,1.818,1.894,1.818,2.955V28.561L85.794,28.561z"/>
<path fill="#005CAB" d="M101.885,31.149c0,1.591-0.29,6.742-2.675,8.334v0.341c2.121,0,9.623-6.137,9.623-11.143V4.516 c0-1.78,1.212-3.106,2.271-3.599V0.766H99.61v0.151c1.063,0.493,2.274,1.818,2.274,3.599V31.149L101.885,31.149z M131.745,21.232 c0-7.007-4.128-10.832-9.202-10.832c-5.075,0-9.205,3.825-9.205,10.832c0,7.045,4.13,10.915,9.205,10.915 C127.617,32.147,131.745,28.277,131.745,21.232L131.745,21.232z M125.08,21.232c0,6.705-0.341,9.999-2.537,9.999 c-2.159,0-2.538-3.294-2.538-9.999c0-6.704,0.379-9.923,2.538-9.923C124.739,11.309,125.08,14.528,125.08,21.232L125.08,21.232z  M135.341,31.763h0.15c0.454-0.795,1.369-1.212,1.748-1.212c1.136,0,3.067,1.597,5.757,1.597c6.023,0,9.052-6.293,9.052-12.43
c0-6.932-4.581-9.317-7.006-9.317c-1.82,0-3.14,0.605-3.405,0.833V0.703h-0.15c-0.606,0.303-2.509,0.757-7.964,0.757v0.152 c0.947,0.303,1.818,1.895,1.818,2.954V31.763L135.341,31.763z M141.637,12.786c0-0.682,0.45-1.249,1.132-1.249 c1.555,0,2.69,2.917,2.69,9.545c0,2.612-0.076,10.149-2.577,10.149c-0.605,0-0.714-0.227-1.245-0.529V12.786L141.637,12.786z"/>
</svg>
