<svg  xmlns="http://www.w3.org/2000/svg">
  <symbol viewBox="0 0 17.5 14.663" id="icon-twitter">
    <path d="M11.283.153c1.736-.485 3.074.263 3.685 1.15.694-.225 1.372-.47 2.072-.69-.004.84-.538 1.478-.883 1.727.704.166 1.343-.48 1.343-.48-.175.976-1.035 1.746-1.61 1.977-.24 6.592-3.273 10.956-10.383 10.823h-.46c-.422 0-4.29-.45-5.047-1.843 2.34.192 4.01-.412 4.835-1.15-.99-.293-2.76-.464-3.07-2.88.362.104.583.222 1.228.116C1.757 8.067.385 7.366.46 5.218c.295.32 1.1.523 1.382.46C1.117 5.445-.188 2.4.922.844c1.872 1.81 3.847 3.52 7.368 3.685.216-2.24 1.17-3.74 2.993-4.375z"/>
  </symbol>
  <symbol viewBox="0 0 8.673 18.944" id="icon-facebook">
    <path d="M6.275 3.357h2.398V0H5.795C2.655.18 1.54 2.387 1.948 6.115H0v3.517h1.958v9.312h3.837V9.632h2.857V6.115H5.786c-.02-1.045-.036-2.406.49-2.758z"/>
  </symbol>
  <symbol viewBox="0 0 14.64 13.96" id="icon-youtube">
    <path d="M1.775 13.78C.8 14.257 0 13.758 0 12.67V1.29C0 .202.8-.295 1.775.18l12.133 5.933c.975.478.975 1.258 0 1.736L1.775 13.78z"/>
  </symbol>
</svg>
