<svg  xmlns="http://www.w3.org/2000/svg">
  <symbol id="icon-editor-contrast" viewBox="0 0 31.92 31.92">
    <path d="M15.96 4c6.595 0 11.96 5.365 11.96 11.96 0 6.596-5.365 11.96-11.96 11.96C9.365 27.92 4 22.556 4 15.96 4 9.365 9.365 4 15.96 4m0-4C7.146 0 0 7.145 0 15.96c0 8.813 7.146 15.96 15.96 15.96s15.96-7.146 15.96-15.96C31.92 7.145 24.774 0 15.96 0z"/>
    <path d="M15.96 24.29c4.704 0 8.52-3.812 8.52-8.516v-.004c0-4.705-3.813-8.518-8.518-8.518h-.002"/>
  </symbol>
  <symbol id="icon-editor-crop" viewBox="0 0 48 48">
    <path d="M34 30h4V14c0-2.21-1.79-4-4-4H18v4h16v16zm-20 4V2h-4v8H2v4h8v20c0 2.21 1.79 4 4 4h20v8h4v-8h8v-4H14z"/>
  </symbol>
  <symbol id="icon-editor-fill" viewBox="0 0 48 48">
    <path d="M33.12 17.88L15.24 0l-2.83 2.83 4.76 4.76L6.88 17.88a3 3 0 0 0 0 4.24l11 11c.58.59 1.35.88 2.12.88s1.54-.29 2.12-.88l11-11a3 3 0 0 0 0-4.24zM10.41 20L20 10.42 29.59 20H10.41zM38 23s-4 4.33-4 7c0 2.21 1.79 4 4 4s4-1.79 4-4c0-2.67-4-7-4-7zM0 40h48v3H0z"/>
  </symbol>
</svg>
